# xmcd CD database file
#
# Track frame offsets:
#	150
#	17589
#	33632
#	64717
#	84362
#	101871
#	118038
#	131706
#	148670
#	167735
#	199141
#	213546
#	234783
#	248723
#	272050
#	317502
#
# Disc length: 4440 seconds
#
# Revision: 0
# Processed by: cddbd v1.5.2PL0 Copyright (c) Steve Scherf et al.
# Submitted via: CDex 1.51
#
DISCID=e1115610
DTITLE=Opener Festival - 2005 Opener Festival
DYEAR=2005
DGENRE=New Age
TTITLE0=Cypress Hill - What's Your Number?
TTITLE1=Faithless - Mass Destruction
TTITLE2=Fatboy Slim - The Rockafeller Skank
TTITLE3=The Music - Getaway
TTITLE4=Goldfrapp - Strict Machine
TTITLE5=Cassius - The Sound Of Violence
TTITLE6=Sistars - Freedom
TTITLE7=Pink - God Is A DJ
TTITLE8=Kosheen - Hide U
TTITLE9=15 Minut Projekt - Mind Con - Fusion
TTITLE10=Chemical Brothers - Galvanize
TTITLE11=Neo - Control
TTITLE12=Smolik and Mika Urbaniak - L.Mine
TTITLE13=Massive Attack - Special Cases
TTITLE14=Underworld - Born Slippy Nuxx
TTITLE15=Data
EXTD=YEAR: 2005
EXTT0=
EXTT1=
EXTT2=
EXTT3=
EXTT4=
EXTT5=
EXTT6=
EXTT7=
EXTT8=
EXTT9=
EXTT10=
EXTT11=
EXTT12=
EXTT13=
EXTT14=
EXTT15=
PLAYORDER=
